<svg xmlns="http://www.w3.org/2000/svg" fill="currentColor" viewBox="0 0 121 40">
  <path d="M16.913 33.334h4.049l-1.179-1.178a1.667 1.667 0 0 0-1.178-.489h-1.692c-6.443 0-11.666-5.223-11.666-11.666 0-6.443 5.223-11.666 11.666-11.666h13.334c6.443 0 11.666 5.223 11.666 11.666 0 6.443-5.223 11.666-11.666 11.666h-4.988a2.5 2.5 0 0 1-1.768-.732l-1.38-1.38a4.167 4.167 0 0 0-2.947-1.22h-2.25a8.333 8.333 0 1 1 0-16.667h13.333a8.333 8.333 0 1 1 0 16.666h-3.203a2.5 2.5 0 0 1-1.768-.732l-1.38-1.38A4.167 4.167 0 0 0 20.949 25h-4.036a5 5 0 1 1 0-10h13.334a5 5 0 0 1 .1 9.999h-1.22a2.5 2.5 0 0 1-1.767-.731l-1.381-1.381a4.166 4.166 0 0 0-2.357-1.179l-.042-.041h-6.667a1.667 1.667 0 1 1 0-3.334h13.334a1.667 1.667 0 1 1 0 3.334h-3.334l1.179 1.178c.313.313.736.488 1.178.488h.977a3.333 3.333 0 1 0 0-6.666H16.913a3.333 3.333 0 1 0 0 6.666h6.12a2.5 2.5 0 0 1 1.767.733l1.381 1.38a4.167 4.167 0 0 0 2.947 1.22h1.535v-.012a6.667 6.667 0 0 0-.416-13.32H16.913a6.667 6.667 0 1 0 0 13.332h4.036a2.5 2.5 0 0 1 1.768.733l1.38 1.38A4.167 4.167 0 0 0 27.045 30h3.203c5.523 0 10-4.476 10-9.999 0-5.523-4.477-10-10-10H16.913c-5.523 0-10 4.477-10 10s4.477 10 10 10h2.251a2.5 2.5 0 0 1 1.768.732l1.38 1.38a4.167 4.167 0 0 0 2.947 1.221h4.988c7.364 0 13.333-5.97 13.333-13.333 0-7.364-5.97-13.333-13.333-13.333H16.913c-7.363 0-13.333 5.97-13.333 13.333 0 7.364 5.97 13.333 13.333 13.333Z"/>
  <path d="M115.071 30.79c-1.22 0-2.146-.294-2.777-.883-.631-.61-.946-1.61-.946-2.997V9.21h3.439v17.384c0 .589.105.989.315 1.199.21.21.526.315.947.315.504 0 .988-.063 1.451-.189v2.493a5.03 5.03 0 0 1-1.167.284 7.363 7.363 0 0 1-1.262.094Zm-7.041 0c-1.22 0-2.146-.294-2.777-.883-.631-.61-.946-1.61-.946-2.997V9.21h3.439v17.384c0 .589.105.989.315 1.199.21.21.526.315.947.315.504 0 .988-.063 1.451-.189v2.493a5.03 5.03 0 0 1-1.167.284 7.363 7.363 0 0 1-1.262.094Zm-15.308 0c-.946 0-1.83-.168-2.65-.505a4.435 4.435 0 0 1-1.925-1.514c-.483-.695-.725-1.546-.725-2.556 0-1.43.484-2.576 1.451-3.439.989-.883 2.503-1.325 4.543-1.325h4.796v-.663c0-.715-.116-1.283-.347-1.703-.21-.42-.61-.726-1.199-.915-.568-.19-1.41-.284-2.524-.284-1.767 0-3.418.263-4.953.789v-2.556c.673-.273 1.493-.494 2.46-.662a18.239 18.239 0 0 1 3.124-.253c2.188 0 3.85.442 4.985 1.325 1.157.884 1.735 2.324 1.735 4.323v9.622h-2.934l-.22-1.514c-.61.589-1.368 1.041-2.272 1.357-.884.315-1.999.473-3.345.473Zm.915-2.461c1.03 0 1.925-.168 2.682-.505.778-.358 1.41-.83 1.893-1.42v-2.618h-4.733c-1.01 0-1.745.2-2.208.6-.442.378-.663.967-.663 1.766 0 .778.263 1.336.79 1.672.525.337 1.272.505 2.24.505ZM83.424 30.79c-1.599 0-2.798-.42-3.597-1.262-.778-.862-1.167-2.03-1.167-3.502v-7.824h-2.21V15.52h2.209v-3.439l3.407-1.041v4.48h3.975l-.22 2.682h-3.755v7.635c0 .862.2 1.472.6 1.83.4.336 1.051.505 1.956.505a5.69 5.69 0 0 0 1.798-.316v2.43c-.82.336-1.82.504-2.997.504Zm-9.029 0c-1.22 0-2.146-.294-2.777-.883-.63-.61-.946-1.61-.946-2.997V9.21h3.439v17.384c0 .589.105.989.315 1.199.21.21.526.315.947.315.505 0 .988-.063 1.451-.189v2.493a5.03 5.03 0 0 1-1.167.284 7.354 7.354 0 0 1-1.262.094Zm-23.811-.316 7.761-20.318h3.85l7.698 20.319h-3.534l-2.02-5.238h-8.17l-2.02 5.238h-3.565Zm6.12-7.887h7.068l-3.534-9.307-3.533 9.307Z"/>
  <defs>
      <path d="M3.584 6.667h40v26.666h-40z"/>
  </defs>
</svg>
