<svg xmlns="http://www.w3.org/2000/svg" fill="currentColor" viewBox="0 0 86 28">
  <path d="M80.973 12.941c.543-1.002 1.044-1.88 1.504-2.548.375-.543.71-.626 1.002-.25.627.752.96 2.548-.042 4.636-.919 1.88-3.007 5.013-4.01 7.226-1.044 2.34-1.086 4.136.334 4.052 1.713-.083 4.01-2.924 5.472-5.806.21-.376.501-.418.669-.042.167.376.167 1.42-.376 2.59-1.086 2.297-3.718 4.595-6.015 4.47-2.256-.126-3.425-1.463-3.425-3.426-1.337 1.713-3.216 3.258-5.221 3.258-3.885 0-4.679-5.304-1.212-10.359 3.383-4.928 6.683-6.808 8.772-6.808 1.796 0 2.631 1.378 2.548 3.007Zm-3.634 6.475c2.631-4.595 3.007-7.185 1.796-7.31-1.337-.125-4.386 2.59-6.683 6.307-2.214 3.592-2.757 7.268-1.128 7.31 1.713.042 3.885-2.632 6.015-6.307Zm-21.01 3.717c-1.462 1.963-3.676 4.094-6.015 3.926-2.965-.209-3.049-3.3-2.13-6.056.919-2.757 3.05-6.85 5.764-10.652.334-.459.752-.417 1.086-.041.92 1.378.71 3.258-.794 5.639-1.545 2.464-2.38 4.135-3.258 6.14-.877 2.047-.751 3.55.21 3.634 1.628.125 3.926-2.799 6.181-6.433 2.632-4.26 3.843-7.142 5.18-8.938.417-.585.71-.669 1.044-.251.627.752.96 2.59-.042 4.678-.919 1.88-3.007 5.012-3.968 7.143-1.086 2.38-.919 4.135.585 4.051 1.754-.083 3.884-2.84 5.513-5.764.21-.376.585-.418.752-.042.167.334.21 1.462-.376 2.632-1.211 2.339-3.8 4.47-6.265 4.47-2.715 0-3.801-1.713-3.467-4.136Zm-19.821-8.897c1.88-2.005 4.72-4.303 6.098-4.094 1.378.21 2.673 2.256 1.629 4.428-.877 1.838-2.924 4.929-3.885 7.1-1.086 2.423-.835 4.386.669 4.303 1.712-.084 3.759-2.84 5.346-5.764.209-.376.501-.376.71-.042.293.46.21 1.42-.376 2.631-1.127 2.34-3.759 4.47-6.182 4.47-3.55 0-4.385-2.59-3.174-6.224 1.378-4.093 5.054-8.52 4.302-8.855-.418-.167-2.84 1.002-5.513 3.926-2.465 2.674-4.303 6.684-6.099 10.61-.167.376-.418.543-.793.167-.836-.835-1.086-2.214-.418-4.302.835-2.632 4.052-8.438 6.683-12.322.292-.46.627-.418.877 0 .627 1.044.585 2.464.126 3.968Zm-7.805-6.892c.543 1.086.25 2.214-.292 2.799-.543.585-1.713.46-2.34-.627-.668-1.127-.459-2.38.21-3.09.668-.71 1.879-.21 2.422.918Zm-6.808 19.8c-3.175 0-3.968-2.674-2.799-6.1 1.044-3.048 3.801-7.977 5.346-10.15.376-.5.669-.626 1.003-.25.627.668.96 2.465-.042 4.553-.877 1.838-2.631 4.678-3.508 6.767-1.003 2.422-.92 4.051.417 3.968 1.88-.084 4.177-2.84 5.43-5.723.21-.375.502-.334.669 0 .334.669.208 1.546-.293 2.59-1.253 2.59-3.884 4.344-6.223 4.344Zm-15.858-9.4c-1.462 2.8-2.924 5.932-4.302 9.148-.167.376-.418.46-.669.125-.626-.877-.96-2.088-.208-4.594 1.044-3.55 8.228-17.71 10.776-21.261.376-.501.668-.46 1.003.084.543.96.752 2.965-.961 6.098-1.086 1.963-2.464 4.427-3.968 7.226C13.18 10.477 19.028 5.255 22.995.953c.293-.334.627-.292.794.084.25.919.209 2.339-1.295 4.385-1.88 2.548-7.56 7.644-13.199 11.612 1.337 2.13 2.464 4.052 2.966 5.222 1.002 2.38.626 3.843 0 4.636-.25.293-.543.293-.752-.084-1.587-3.09-3.425-6.098-5.472-9.064Z"/>
</svg>
