<svg xmlns="http://www.w3.org/2000/svg" fill="currentColor" viewBox="0 0 1158 610">
  <path fill-rule="evenodd" d="M50.7 0C22.7 0 0 22.7 0 50.7v508.6C0 587.301 22.7 610 50.7 610c28 0 50.7-22.699 50.7-50.7V50.7c0-28-22.7-50.7-50.7-50.7Zm117.4 0c-28.001 0-50.7 22.7-50.7 50.7v508.6c0 28.001 22.699 50.7 50.7 50.7s50.7-22.699 50.7-50.7V50.7c0-28-22.699-50.7-50.7-50.7Zm66.7 50.7c0-28 22.699-50.7 50.7-50.7s50.7 22.7 50.7 50.7v508.6c0 28.001-22.699 50.7-50.7 50.7s-50.7-22.699-50.7-50.7V50.7ZM402.9 0c-28.001 0-50.7 22.7-50.7 50.7v508.6c0 28.001 22.699 50.7 50.7 50.7s50.7-22.699 50.7-50.7V50.7c0-28-22.699-50.7-50.7-50.7Zm66.7 50.7c0-28 22.699-50.7 50.7-50.7S571 22.7 571 50.7v508.6c0 28.001-22.699 50.7-50.7 50.7s-50.7-22.699-50.7-50.7V50.7ZM637.7 0C609.699 0 587 22.7 587 50.7v508.6c0 28.001 22.699 50.7 50.7 50.7s50.7-22.699 50.7-50.7V50.7c0-28-22.699-50.7-50.7-50.7Zm66.7 50.7c0-28 22.699-50.7 50.7-50.7s50.7 22.7 50.7 50.7v508.6c0 28.001-22.699 50.7-50.7 50.7s-50.7-22.699-50.7-50.7V50.7ZM872.5 0c-28.001 0-50.7 22.7-50.7 50.7v508.6c0 28.001 22.699 50.7 50.7 50.7s50.7-22.699 50.7-50.7V50.7c0-28-22.699-50.7-50.7-50.7Zm66.7 50.7c0-28 22.699-50.7 50.7-50.7 28 0 50.7 22.7 50.7 50.7v508.6c0 28.001-22.7 50.7-50.7 50.7-28.001 0-50.7-22.699-50.7-50.7V50.7ZM1107.3 0c-28 0-50.7 22.7-50.7 50.7v508.6c0 28.001 22.7 50.7 50.7 50.7 28 0 50.7-22.699 50.7-50.7V50.7c0-28-22.7-50.7-50.7-50.7Z" clip-rule="evenodd"/>
</svg>
